# Apple ModelIO OBJ File: floor
mtllib floor.mtl
g pCylinder1_pCylinder1SG
v 393.659 79.0982 -632.105
v 393.659 0.138756 -632.105
v 337.58 0.138756 -632.105
v 365.62 79.0981 -632.105
v 337.58 79.0982 -632.105
v 250.236 0.138756 -632.105
v 250.236 79.0982 -632.105
v 140.175 0.138756 -632.105
v 140.175 79.0982 -632.105
v 0 0.138756 -632.105
v 0 79.0982 -632.105
v 636.644 79.0982 -400.823
v 636.796 46.331 -401.632
v 636.796 0.138756 -401.632
v 43.0389 0.138756 -426.83
v 36.9078 0.138756 -426.83
v 27.3584 0.138756 -426.83
v 15.3254 0.138756 -426.83
v 122.003 0.138756 -133.596
v 0 0.138756 -119.802
v 0 0.138756 -401.632
v 232.064 0.138756 -173.627
v 319.409 0.138756 -235.977
v 375.487 0.138756 -314.542
v 394.811 0.138756 -401.632
v 394.685 0.138756 -426.83
v 365.305 79.0981 -615.505
v 36.9078 79.0982 -426.83
v 43.0389 79.0982 -426.83
v 27.3584 79.0982 -426.83
v 15.3254 79.0982 -426.83
v 0 79.0982 -426.83
v 0 0.138756 -426.83
v -393.659 0.138756 -632.105
v -393.659 79.0982 -632.105
v -365.62 79.0981 -632.105
v -337.58 79.0982 -632.105
v -337.58 0.138756 -632.105
v -250.236 79.0982 -632.105
v -250.236 0.138756 -632.105
v -140.175 79.0982 -632.105
v -140.175 0.138756 -632.105
v -631.354 0.138756 -401.632
v -631.354 46.331 -401.632
v -631.203 79.0982 -400.823
v -36.9078 0.138756 -426.83
v -43.0389 0.138756 -426.83
v -27.3584 0.138756 -426.83
v -15.3254 0.138756 -426.83
v -122.003 0.138756 -133.596
v -232.064 0.138756 -173.627
v -319.409 0.138756 -235.977
v -375.487 0.138756 -314.542
v -394.811 0.138756 -401.632
v -394.685 0.138756 -426.83
v -365.305 79.0981 -615.505
v -36.9078 79.0982 -426.83
v -27.3584 79.0982 -426.83
v -15.3254 79.0982 -426.83
v 361.247 79.0982 -401.632
v 361.725 79.0981 -426.83
v 0 79.0982 -401.632
v -394.716 452.824 -400.823
v -361.247 452.824 -401.632
v -361.725 452.824 -426.83
v -394.597 452.824 -426.83
v 121.374 46.331 -133.594
v 114.458 79.0982 -165.719
v 0 46.331 -119.802
v 0 79.0982 -152.778
v 232.064 46.331 -173.627
v 216.664 79.0982 -202.893
v 295.918 79.0982 -259.467
v 319.409 46.331 -235.977
v 375.487 46.331 -314.542
v 344.943 79.0982 -328.15
v 394.811 46.331 -401.632
v -122.003 46.331 -133.596
v -114.458 79.0982 -165.719
v -216.664 79.0982 -202.893
v -232.064 46.331 -173.627
v -295.918 79.0982 -259.467
v -319.409 46.331 -235.977
v -375.487 46.331 -314.542
v -344.943 79.0982 -328.15
v -361.247 79.0982 -401.632
v -394.811 46.331 -401.632
v 394.716 79.0982 -400.823
v -394.716 79.0982 -400.823
v 636.594 0.138756 -426.83
v 634.954 79.0982 -632.105
v 634.954 0.138756 -632.105
v 394.597 79.0982 -426.83
v 636.454 79.0982 -426.83
v -631.013 452.824 -426.83
v -631.203 452.824 -400.823
v -629.513 0.138756 -632.105
v -629.513 79.0982 -632.105
v -631.153 0.138756 -426.83
v -631.013 79.0982 -426.83
v -43.0389 79.0982 -426.83
v -394.597 79.0982 -426.83
v -361.725 79.0981 -426.83
v 636.454 452.824 -426.83
v 394.597 452.824 -426.83
v 394.716 452.824 -400.823
v 636.644 452.824 -400.823
v 361.247 452.824 -401.632
v 361.725 452.824 -426.83
vn 0 0 -1
vn 0.999953 0.001904 -0.009466
vn 0 -1 0
vn 0 -0 0
vn 0 1 0
vn -0.999953 0.001903 -0.009465
vn 1e-06 1 0
vn 0 1 2e-06
vn 0.158233 0.708801 0.687432
vn 0.160112 0.708795 0.687003
vn -6e-06 0.70917 0.705038
vn -3e-06 0.70917 0.705038
vn 0.32185 0.709752 0.62663
vn 0.324977 0.709785 0.624976
vn 0.493103 0.711944 0.499986
vn 0.489731 0.711919 0.503324
vn 0.635728 0.714217 0.292819
vn 0.637341 0.714236 0.289246
vn 0.690319 0.707106 0.153167
vn -0.158128 0.709572 0.686661
vn -0.159862 0.709575 0.686256
vn -0.325127 0.710355 0.624251
vn -0.321997 0.710343 0.625884
vn -0.493103 0.711944 0.499986
vn -0.489731 0.711919 0.503324
vn -0.635728 0.714217 0.292819
vn -0.637341 0.714237 0.289246
vn -0.690319 0.707106 0.153166
vn 0.226019 0.001517 0.974122
vn 0.459822 0.001213 0.88801
vn 0.225863 0.001516 0.974158
vn 0.700841 0 0.713317
vn 0.910151 0 0.414277
vn 0.976258 0 0.21661
vn -4e-06 0.000374 1
vn -0.225941 0 0.974141
vn -0.460396 0 0.887713
vn -0.700841 0 0.713317
vn -0.910151 0 0.414277
vn -0.976258 0 0.21661
vn -0.024158 -0.024746 0.999402
vn 0.024158 -0.024746 0.999402
vn 0 -0.024683 0.999695
vn 0 0 1
vn 0 1 1e-06
vn 0.999969 0.001 -0.00785
vn 0.99997 0.000888 -0.00765
vn -0.999969 0.000999 -0.007849
vn -0.99997 0.000887 -0.00765
vn 0 1 -1e-06
vn -1e-06 1 0
vn 0.024166 0 0.999708
vn 0.99982 0 -0.018962
vn -0.999973 0 -0.007307
vn 0.999973 0 -0.007311
vn -0.024166 0 0.999708
vn -0.99982 0 -0.01897
vt 0.65367 0.046048
vt 0.827391 0.046048
vt 0.827391 0.056307
vt 0.65367 0.051167
vt 0.65367 0.056307
vt 0.827391 0.072256
vt 0.65367 0.072256
vt 0.827391 0.092356
vt 0.65367 0.092356
vt 0.827391 0.117949
vt 0.65367 0.117949
vt 0.001897 0.175721
vt 0.002106 0.103623
vt 0.002106 0.001992
vt 0.386353 0.056637
vt 0.386353 0.046389
vt 0.438867 0.110425
vt 0.438867 0.111548
vt 0.386353 0.072585
vt 0.438867 0.113289
vt 0.386353 0.092686
vt 0.438867 0.115486
vt 0.513887 0.096003
vt 0.517418 0.118287
vt 0.445314 0.118287
vt 0.50365 0.075903
vt 0.487695 0.059954
vt 0.467595 0.049717
vt 0.445314 0.04618
vt 0.438867 0.046202
vt 0.64211 0.051507
vt 0.646349 0.051452
vt 0.646349 0.056571
vt 0.593835 0.11149
vt 0.593835 0.11037
vt 0.646349 0.07252
vt 0.593835 0.113226
vt 0.646349 0.09262
vt 0.593835 0.115423
vt 0.646349 0.118224
vt 0.593835 0.118224
vt 0.438867 0.118287
vt 0.827391 0.189849
vt 0.65367 0.189849
vt 0.65367 0.184731
vt 0.65367 0.17959
vt 0.827391 0.17959
vt 0.65367 0.163642
vt 0.827391 0.163642
vt 0.65367 0.143541
vt 0.827391 0.143541
vt 0.126015 0.001992
vt 0.126015 0.103623
vt 0.126221 0.175721
vt 0.386353 0.179936
vt 0.438867 0.125028
vt 0.438867 0.126146
vt 0.386353 0.190179
vt 0.386353 0.163985
vt 0.438867 0.123284
vt 0.386353 0.143887
vt 0.438867 0.121085
vt 0.513887 0.140567
vt 0.50365 0.160668
vt 0.487695 0.176619
vt 0.467595 0.186862
vt 0.445314 0.19039
vt 0.438867 0.190366
vt 0.646349 0.190113
vt 0.64211 0.18494
vt 0.646349 0.184995
vt 0.646349 0.179876
vt 0.593835 0.124968
vt 0.646349 0.163927
vt 0.593835 0.123221
vt 0.593835 0.121024
vt 0.646349 0.143827
vt 0.587388 0.052243
vt 0.593835 0.052155
vt 0.587388 0.118224
vt 0.803095 0.242836
vt 0.803304 0.236718
vt 0.809751 0.236806
vt 0.809751 0.242814
vt 0.898287 0.103623
vt 0.897024 0.175721
vt 0.876121 0.103623
vt 0.876121 0.175721
vt 0.918503 0.103623
vt 0.915691 0.175721
vt 0.899753 0.353251
vt 0.892262 0.281153
vt 0.91423 0.353251
vt 0.908222 0.281153
vt 0.928311 0.281153
vt 0.931793 0.353251
vt 0.950598 0.353251
vt 0.950598 0.281153
vt 0.853841 0.103623
vt 0.855219 0.175721
vt 0.836552 0.175721
vt 0.83374 0.103623
vt 0.886427 0.338349
vt 0.878939 0.410447
vt 0.864465 0.410447
vt 0.870476 0.338349
vt 0.850375 0.338349
vt 0.846893 0.410447
vt 0.828094 0.410447
vt 0.828094 0.338349
vt 0.898402 0.001992
vt 0.918503 0.001992
vt 0.892262 0.179522
vt 0.908222 0.179522
vt 0.928311 0.179522
vt 0.950598 0.179522
vt 0.527031 0.097321
vt 0.536543 0.078649
vt 0.55102 0.064183
vt 0.568583 0.055231
vt 0.876121 0.001992
vt 0.523725 0.118224
vt 0.853841 0.001992
vt 0.83374 0.001992
vt 0.886427 0.236718
vt 0.870476 0.236718
vt 0.850375 0.236718
vt 0.828094 0.236718
vt 0.527031 0.139126
vt 0.536543 0.157798
vt 0.55102 0.172264
vt 0.568583 0.181216
vt 0.587388 0.184193
vt 0.133885 0.175721
vt 0.140014 0.103623
vt 0.139998 0.175721
vt 0.240761 0.175721
vt 0.234649 0.175721
vt 0.234629 0.103623
vt 0.438867 0.002025
vt 0.445314 0.001992
vt 0.65367 0.002003
vt 0.827391 0.002003
vt 0.646349 0.046334
vt 0.593835 0.046158
vt 0.593835 0.001992
vt 0.646349 0.002267
vt 0.184208 0.103623
vt 0.18418 0.175721
vt 0.140014 0.001992
vt 0.184208 0.001992
vt 0.234629 0.001992
vt 0.191433 0.103623
vt 0.191433 0.001992
vt 0.19146 0.175721
vt 0.809751 0.285991
vt 0.803095 0.286024
vt 0.827391 0.232906
vt 0.65367 0.232906
vt 0.438867 0.233552
vt 0.386353 0.233252
vt 0.008554 0.175721
vt 0.008554 0.001992
vt 0.061068 0.175721
vt 0.061068 0.001992
vt 0.386353 0.118287
vt 0.119568 0.001992
vt 0.119568 0.175721
vt 0.067054 0.175721
vt 0.067054 0.001992
vt 0.593835 0.126077
vt 0.593835 0.190289
vt 0.593835 0.184281
vt 0.386353 0.002333
vt 0.822251 0.236762
vt 0.822251 0.280928
vt 0.815595 0.280906
vt 0.815595 0.236718
vt 0.593835 0.233466
vt 0.646349 0.233192
vt 0.445314 0.233587
vt 0.815803 0.287024
vt 0.822251 0.286936
vt 0.240761 0.998008
vt 0.234649 0.998008
vt 0.247124 0.001992
vt 0.253571 0.001992
vt 0.247124 0.824279
vt 0.253571 0.824279
vt 0.309301 0.824301
vt 0.303298 0.824301
vt 0.303298 0.002003
vt 0.309301 0.002003
vt 0.26012 0.824301
vt 0.26012 0.002003
vt 0.126221 0.998008
vt 0.119568 0.998008
vt 0.19146 0.998008
vt 0.36598 0.824301
vt 0.321814 0.824301
vt 0.321814 0.002003
vt 0.36598 0.002003
vt 0.18418 0.998008
vt 0.139998 0.998008
vt 0.008554 0.998008
vt 0.001897 0.998008
vt 0.133885 0.998008
vt 0.315811 0.824301
vt 0.315811 0.002003
vt 0.373356 0.001992
vt 0.379803 0.001992
vt 0.373356 0.824279
vt 0.379803 0.824279
usemtl pCylinder1SG
f 1/1/1 2/2/1 3/3/1
f 4/4/1 1/1/1 3/3/1
f 5/5/1 4/4/1 3/3/1
f 3/3/1 6/6/1 7/7/1
f 3/3/1 7/7/1 5/5/1
f 6/6/1 8/8/1 9/9/1
f 6/6/1 9/9/1 7/7/1
f 8/8/1 10/10/1 11/11/1
f 8/8/1 11/11/1 9/9/1
f 12/12/2 13/13/2 14/14/2
f 3/15/3 2/16/3 15/17/3
f 3/15/3 15/17/3 16/18/3
f 6/19/3 3/15/3 16/18/3
f 6/19/3 16/18/3 17/20/3
f 8/21/3 6/19/3 17/20/3
f 8/21/3 17/20/3 18/22/3
f 19/23/3 20/24/3 21/25/3
f 22/26/3 19/23/3 21/25/4
f 22/26/3 21/25/4 21/25/4
f 23/27/3 22/26/3 21/25/3
f 23/27/3 21/25/3 21/25/3
f 24/28/3 23/27/3 21/25/3
f 24/28/3 21/25/3 21/25/3
f 25/29/3 24/28/3 21/25/4
f 25/29/3 21/25/4 21/25/4
f 2/16/3 26/30/3 15/17/3
f 27/31/5 4/32/5 5/33/5
f 27/31/5 5/33/5 28/34/5
f 27/31/5 28/34/5 29/35/5
f 5/33/5 7/36/5 30/37/5
f 5/33/5 30/37/5 28/34/5
f 7/36/5 9/38/5 31/39/5
f 7/36/5 31/39/5 30/37/5
f 9/38/5 11/40/5 31/39/5
f 11/40/5 32/41/5 31/39/5
f 21/25/3 33/42/3 18/22/3
f 34/43/1 35/44/1 36/45/1
f 34/43/1 36/45/1 37/46/1
f 34/43/1 37/46/1 38/47/1
f 38/47/1 37/46/1 39/48/1
f 38/47/1 39/48/1 40/49/1
f 40/49/1 39/48/1 41/50/1
f 40/49/1 41/50/1 42/51/1
f 42/51/1 41/50/1 11/11/1
f 42/51/1 11/11/1 10/10/1
f 43/52/6 44/53/6 45/54/6
f 38/55/3 46/56/3 47/57/3
f 38/55/3 47/57/3 34/58/3
f 40/59/3 48/60/3 38/55/3
f 48/60/3 46/56/3 38/55/3
f 42/61/3 49/62/3 48/60/3
f 42/61/3 48/60/3 40/59/3
f 50/63/3 21/25/3 20/24/3
f 51/64/3 21/25/4 21/25/4
f 51/64/3 21/25/4 50/63/3
f 52/65/3 21/25/3 21/25/3
f 52/65/3 21/25/3 51/64/3
f 53/66/3 21/25/3 21/25/3
f 53/66/3 21/25/3 52/65/3
f 54/67/3 21/25/4 21/25/4
f 54/67/3 21/25/4 53/66/3
f 34/58/3 47/57/3 55/68/3
f 35/69/7 56/70/5 36/71/5
f 37/72/5 57/73/5 39/74/5
f 57/73/5 58/75/5 39/74/5
f 39/74/5 58/75/5 59/76/5
f 39/74/5 59/76/5 41/77/5
f 41/77/5 59/76/5 11/40/5
f 59/76/5 32/41/5 11/40/5
f 21/25/3 49/62/3 33/42/3
f 60/78/5 61/79/5 29/35/5
f 60/78/5 29/35/5 62/80/5
f 63/81/8 64/82/8 65/83/8
f 63/81/8 65/83/8 66/84/8
f 67/85/9 68/86/10 69/87/11
f 68/86/10 70/88/12 69/87/11
f 68/86/10 67/85/9 71/89/13
f 68/86/10 71/89/13 72/90/14
f 72/91/14 71/92/13 73/93/15
f 71/92/13 74/94/16 73/93/15
f 73/93/15 74/94/16 75/95/17
f 73/93/15 75/95/17 76/96/18
f 76/96/18 75/95/17 60/97/19
f 75/95/17 77/98/19 60/97/19
f 69/87/11 70/88/12 78/99/20
f 70/88/12 79/100/21 78/99/20
f 78/99/20 79/100/21 80/101/22
f 78/99/20 80/101/22 81/102/23
f 81/103/23 80/104/22 82/105/24
f 81/103/23 82/105/24 83/106/25
f 83/106/25 82/105/24 84/107/26
f 82/105/24 85/108/27 84/107/26
f 84/107/26 85/108/27 86/109/28
f 84/107/26 86/109/28 87/110/28
f 19/111/29 22/112/30 67/85/31
f 22/112/30 71/89/30 67/85/31
f 22/113/30 23/114/32 74/94/32
f 22/113/30 74/94/32 71/92/30
f 23/114/32 24/115/33 75/95/33
f 23/114/32 75/95/33 74/94/32
f 24/115/33 25/116/34 77/98/34
f 24/115/33 77/98/34 75/95/33
f 68/117/5 72/118/5 62/80/5
f 72/118/5 73/119/5 62/80/5
f 73/119/5 76/120/5 62/80/5
f 76/120/5 60/78/5 62/80/5
f 69/87/35 20/121/35 19/111/29
f 69/87/35 19/111/29 67/85/31
f 62/80/5 70/122/5 68/117/5
f 50/123/36 78/99/36 81/102/37
f 50/123/36 81/102/37 51/124/37
f 51/125/37 81/103/37 83/106/38
f 51/125/37 83/106/38 52/126/38
f 52/126/38 83/106/38 84/107/39
f 52/126/38 84/107/39 53/127/39
f 53/127/39 84/107/39 87/110/40
f 53/127/39 87/110/40 54/128/40
f 79/129/5 62/80/5 80/130/5
f 80/130/5 62/80/5 82/131/5
f 82/131/5 62/80/5 85/132/5
f 85/132/5 62/80/5 86/133/5
f 69/87/35 78/99/36 50/123/36
f 69/87/35 50/123/36 20/121/35
f 62/80/5 79/129/5 70/122/5
f 60/134/41 77/135/41 88/136/41
f 86/137/42 89/138/42 87/139/42
f 25/29/3 26/30/3 90/140/3
f 25/29/3 90/140/3 14/141/3
f 2/2/1 1/1/1 91/142/1
f 2/2/1 91/142/1 92/143/1
f 1/144/5 93/145/5 94/146/5
f 1/144/5 94/146/5 91/147/5
f 88/136/43 77/135/43 13/148/43
f 88/136/43 13/148/43 12/149/43
f 77/135/44 25/150/44 14/151/44
f 77/135/44 14/151/44 13/148/44
f 54/152/44 87/139/44 44/153/44
f 54/152/44 44/153/44 43/154/44
f 87/139/43 89/138/43 44/153/43
f 89/138/43 45/155/43 44/153/43
f 63/81/45 66/84/45 95/156/45
f 63/81/45 95/156/45 96/157/45
f 35/44/1 34/43/1 97/158/1
f 35/44/1 97/158/1 98/159/1
f 34/58/3 55/68/3 99/160/3
f 34/58/3 99/160/3 97/161/3
f 94/162/46 90/163/46 91/164/47
f 90/163/46 92/165/47 91/164/47
f 16/18/3 15/17/3 21/25/4
f 16/18/3 21/25/4 21/25/4
f 17/20/3 16/18/3 21/25/3
f 17/20/3 21/25/3 21/25/3
f 18/22/3 17/20/3 21/25/3
f 18/22/3 21/25/3 21/25/3
f 21/25/4 15/17/3 26/30/3
f 29/35/5 28/34/5 62/80/4
f 29/35/5 62/80/4 62/80/4
f 28/34/5 30/37/5 62/80/4
f 28/34/5 62/80/4 62/80/4
f 30/37/5 31/39/5 62/80/4
f 30/37/5 62/80/4 62/80/4
f 31/39/5 32/41/5 62/80/5
f 18/22/3 33/42/3 10/166/3
f 18/22/3 10/166/3 8/21/3
f 99/167/48 100/168/48 98/169/49
f 99/167/48 98/169/49 97/170/49
f 47/57/3 46/56/3 21/25/4
f 47/57/3 21/25/4 21/25/4
f 46/56/3 48/60/3 21/25/3
f 46/56/3 21/25/3 21/25/3
f 48/60/3 49/62/3 21/25/3
f 48/60/3 21/25/3 21/25/3
f 55/68/3 47/57/3 21/25/4
f 55/68/3 21/25/4 21/25/4
f 55/68/3 21/25/4 54/67/3
f 57/73/5 101/171/5 62/80/4
f 57/73/5 62/80/4 62/80/4
f 58/75/5 57/73/5 62/80/4
f 58/75/5 62/80/4 62/80/4
f 59/76/5 58/75/5 62/80/4
f 59/76/5 62/80/4 62/80/4
f 32/41/5 59/76/5 62/80/5
f 33/42/3 49/62/3 10/166/3
f 49/62/3 42/61/3 10/166/3
f 29/35/5 61/79/5 27/31/5
f 102/172/7 103/173/5 56/70/5
f 102/172/7 56/70/5 35/69/7
f 90/140/3 26/30/3 2/16/3
f 90/140/3 2/16/3 92/174/3
f 104/175/50 105/176/50 106/177/50
f 104/175/50 106/177/50 107/178/50
f 100/179/5 102/172/5 35/69/5
f 100/179/5 35/69/5 98/180/5
f 99/160/3 55/68/3 54/67/3
f 99/160/3 54/67/3 43/181/3
f 103/173/5 86/133/5 62/80/5
f 103/173/5 62/80/5 101/171/5
f 56/70/5 103/173/5 101/171/5
f 36/71/5 56/70/5 101/171/5
f 36/71/5 101/171/5 57/73/5
f 36/71/5 57/73/5 37/72/5
f 108/182/45 106/177/45 109/183/45
f 106/177/45 105/176/45 109/183/45
f 27/31/5 61/79/5 93/145/51
f 27/31/5 93/145/51 1/144/51
f 1/144/51 4/32/5 27/31/5
f 89/138/52 86/137/52 64/184/52
f 89/138/52 64/184/52 63/185/52
f 86/186/53 103/187/53 64/188/53
f 103/187/53 65/189/53 64/188/53
f 103/190/1 102/191/1 66/192/1
f 103/190/1 66/192/1 65/193/1
f 102/191/1 100/194/1 95/195/1
f 102/191/1 95/195/1 66/192/1
f 100/168/54 45/54/54 96/196/54
f 100/168/54 96/196/54 95/197/54
f 45/155/44 89/138/44 96/198/44
f 89/138/44 63/185/44 96/198/44
f 94/199/1 93/200/1 105/201/1
f 94/199/1 105/201/1 104/202/1
f 88/136/44 12/149/44 107/203/44
f 88/136/44 107/203/44 106/204/44
f 12/12/55 94/162/55 104/205/55
f 12/12/55 104/205/55 107/206/55
f 60/134/56 88/136/56 106/204/56
f 60/134/56 106/204/56 108/207/56
f 93/200/1 61/208/1 109/209/1
f 93/200/1 109/209/1 105/201/1
f 61/210/57 60/211/57 109/212/57
f 60/211/57 108/213/57 109/212/57
s off
